<svg width="26" height="26" viewBox="0 0 26 26" fill="none" xmlns="http://www.w3.org/2000/svg">
<path d="M13 4.33335C10.6068 4.33335 8.66667 6.27345 8.66667 8.66669C8.66667 11.0599 10.6068 13 13 13C15.3932 13 17.3333 11.0599 17.3333 8.66669C17.3333 6.27345 15.3932 4.33335 13 4.33335ZM6.5 8.66669C6.5 5.07684 9.41015 2.16669 13 2.16669C16.5899 2.16669 19.5 5.07684 19.5 8.66669C19.5 12.2565 16.5899 15.1667 13 15.1667C9.41015 15.1667 6.5 12.2565 6.5 8.66669ZM8.66667 19.5C6.87174 19.5 5.41667 20.9551 5.41667 22.75C5.41667 23.3483 4.93164 23.8334 4.33333 23.8334C3.73502 23.8334 3.25 23.3483 3.25 22.75C3.25 19.7585 5.67513 17.3334 8.66667 17.3334H17.3333C20.3249 17.3334 22.75 19.7585 22.75 22.75C22.75 23.3483 22.265 23.8334 21.6667 23.8334C21.0684 23.8334 20.5833 23.3483 20.5833 22.75C20.5833 20.9551 19.1283 19.5 17.3333 19.5H8.66667Z" fill="#0D0D0D"/>
</svg>
